<svg xmlns="http://www.w3.org/2000/svg" width="24" height="24" version="1.0"><path fill="#010101" d="M15.072 17.27a.344.344 0 0 1-.168-.043l-2.98-1.635-3.034 1.555a.35.35 0 0 1-.503-.378l.645-3.353-2.417-2.414a.347.347 0 0 1 .199-.593l3.386-.456 1.53-3.031c.06-.119.181-.21.316-.192a.35.35 0 0 1 .312.199l1.478 3.086 3.36.537a.349.349 0 0 1 .278.243.347.347 0 0 1-.094.357l-2.473 2.334.494 3.276a.346.346 0 0 1 .037.157c0 .196-.176.346-.358.35l-.008.001zm-3.142-2.425c.058 0 .116.015.168.043l2.523 1.384-.432-2.863a.35.35 0 0 1 .105-.307l2.089-1.972-2.84-.453a.35.35 0 0 1-.26-.195l-1.25-2.61-1.292 2.56a.348.348 0 0 1-.266.189l-2.867.386 2.048 2.045c.082.082.118.2.097.313l-.544 2.83 2.56-1.313a.38.38 0 0 1 .161-.037z"/></svg>